<svg xmlns="http://www.w3.org/2000/svg" xmlns:xlink="http://www.w3.org/1999/xlink" version="1.1" x="0px" y="0px" width="100px" height="100px" viewBox="0 0 100 100" enable-background="new 0 0 100 100" xml:space="preserve">
<g id="Captions">
</g>
<g id="Your_Icon">
	<path fill="#000000" d="M95.232,48.109L89.507,3.121c-0.288-2.284-2.336-3.622-4.545-2.974L54.21,9.175l-0.545-4.283   c-0.291-2.284-2.336-3.622-4.545-2.973L12.746,12.524L12.32,9.108c1.114-0.865,1.766-2.266,1.575-3.767   c-0.286-2.257-2.35-3.855-4.608-3.567C7.029,2.061,5.433,4.125,5.719,6.382c0.19,1.493,1.162,2.681,2.447,3.243L19.417,100h4.219   l-4.235-34.015l33.779-9.969l0.544,4.278c0.29,2.283,2.335,3.621,4.545,2.973l33.475-9.826   C93.953,52.793,95.523,50.393,95.232,48.109z"/>
</g>
</svg>